<?xml version="1.0" standalone="no"?><!-- Generator: Gravit.io --><svg xmlns="http://www.w3.org/2000/svg" xmlns:xlink="http://www.w3.org/1999/xlink" style="isolation:isolate" viewBox="0 0 1178.3 867.1" width="1178.3" height="867.1"><defs><clipPath id="_clipPath_34LNbUNu6GY3fkOLtzGcLVWNbGgJStlN"><rect width="1178.3" height="867.1"/></clipPath></defs><g clip-path="url(#_clipPath_34LNbUNu6GY3fkOLtzGcLVWNbGgJStlN)"><path d=" M 272.446 572.724 C 277.159 572.724 281.048 574.374 284.347 577.673 C 287.646 580.972 289.296 584.978 289.296 589.574 L 289.296 648.017 L 229.556 648.017 C 224.843 648.017 220.954 646.368 217.655 643.068 C 214.356 639.769 212.706 635.763 212.706 631.168 L 212.706 603.36 L 275.274 603.36 L 275.274 589.574 C 275.274 588.749 275.038 588.16 274.449 587.57 C 273.86 586.981 273.271 586.746 272.446 586.746 L 212.706 586.746 L 212.706 572.724 L 272.446 572.724 Z  M 275.274 633.995 L 275.274 617.381 L 226.728 617.381 L 226.728 631.168 C 226.728 631.992 226.964 632.582 227.553 633.171 C 228.142 633.76 228.731 633.995 229.556 633.995 L 275.274 633.995 L 275.274 633.995 Z  M 410.425 572.724 L 425.39 572.724 L 397.11 648.017 L 385.681 648.017 L 360.347 592.048 L 336.428 648.017 L 336.192 647.899 L 336.31 648.017 L 324.998 648.017 L 295.423 572.724 L 310.27 572.724 L 330.654 622.684 L 352.335 572.724 L 368.36 572.724 L 391.337 622.684 L 410.425 572.724 Z  M 489.607 572.724 C 494.32 572.724 498.208 574.374 501.508 577.673 C 504.807 580.972 506.457 584.978 506.457 589.574 L 506.457 617.381 L 443.889 617.381 L 443.889 631.168 C 443.889 631.992 444.124 632.582 444.714 633.171 C 445.303 633.76 445.892 633.995 446.717 633.995 L 506.457 633.995 L 506.457 648.017 L 446.717 648.017 C 442.004 648.017 438.115 646.368 434.816 643.068 C 431.517 639.769 429.867 635.763 429.867 631.168 L 429.867 589.574 C 429.867 584.86 431.517 580.972 434.816 577.673 C 438.115 574.374 442.121 572.724 446.717 572.724 L 489.607 572.724 L 489.607 572.724 Z  M 443.889 603.36 L 492.435 603.36 L 492.435 589.574 C 492.435 588.749 492.199 588.16 491.61 587.57 C 491.021 586.981 490.432 586.746 489.607 586.746 L 446.717 586.746 C 445.892 586.746 445.303 586.981 444.714 587.57 C 444.124 588.16 443.889 588.749 443.889 589.574 L 443.889 603.36 L 443.889 603.36 Z  M 595.89 589.691 L 595.89 592.519 L 581.868 592.519 L 581.868 589.691 C 581.868 588.867 581.632 588.277 581.043 587.688 C 580.454 587.099 579.865 586.863 579.04 586.863 L 536.15 586.863 C 535.325 586.863 534.736 587.099 534.147 587.688 C 533.557 588.277 533.322 588.867 533.322 589.691 L 533.322 600.65 C 533.322 601.474 533.557 602.064 534.147 602.653 C 534.736 603.242 535.325 603.478 536.15 603.478 L 579.04 603.478 C 583.753 603.478 587.641 605.127 590.941 608.426 C 594.24 611.726 595.89 615.732 595.89 620.327 L 595.89 631.285 C 595.89 635.999 594.24 639.887 590.941 643.186 C 587.641 646.485 583.635 648.135 579.04 648.135 L 536.15 648.135 C 531.437 648.135 527.548 646.485 524.249 643.186 C 520.95 639.887 519.3 635.881 519.3 631.285 L 519.3 628.457 L 533.322 628.457 L 533.322 631.285 C 533.322 632.11 533.557 632.699 534.147 633.289 C 534.736 633.878 535.325 634.113 536.15 634.113 L 579.04 634.113 C 579.865 634.113 580.454 633.878 581.043 633.289 C 581.632 632.699 581.868 632.11 581.868 631.285 L 581.868 620.327 C 581.868 619.502 581.632 618.913 581.043 618.324 C 580.454 617.735 579.865 617.499 579.04 617.499 L 536.15 617.499 C 531.437 617.499 527.548 615.85 524.249 612.55 C 520.95 609.251 519.3 605.245 519.3 600.65 L 519.3 589.691 C 519.3 584.978 520.95 581.09 524.249 577.791 C 527.548 574.491 531.554 572.842 536.15 572.842 L 579.04 572.842 C 583.753 572.842 587.641 574.491 590.941 577.791 C 594.24 580.972 595.89 584.978 595.89 589.691 Z  M 625.583 572.724 L 668.473 572.724 C 673.186 572.724 677.074 574.374 680.374 577.673 C 683.673 580.972 685.322 584.978 685.322 589.574 L 685.322 631.168 C 685.322 635.881 683.673 639.769 680.374 643.068 C 677.074 646.368 673.068 648.017 668.473 648.017 L 625.583 648.017 C 620.869 648.017 616.981 646.368 613.682 643.068 C 610.383 639.769 608.733 635.763 608.733 631.168 L 608.733 589.574 C 608.733 584.86 610.383 580.972 613.682 577.673 C 616.981 574.374 620.987 572.724 625.583 572.724 L 625.583 572.724 Z  M 668.473 586.746 L 625.583 586.746 C 624.758 586.746 624.169 586.981 623.58 587.57 C 622.99 588.16 622.755 588.749 622.755 589.574 L 622.755 631.168 C 622.755 631.992 622.99 632.582 623.58 633.171 C 624.169 633.76 624.758 633.995 625.583 633.995 L 668.473 633.995 C 669.298 633.995 669.887 633.76 670.476 633.171 C 671.065 632.582 671.301 631.992 671.301 631.168 L 671.301 589.574 C 671.301 588.749 671.065 588.16 670.476 587.57 C 669.887 587.099 669.298 586.746 668.473 586.746 Z  M 795.14 572.724 C 799.853 572.724 803.742 574.374 807.041 577.673 C 810.34 580.972 811.99 584.978 811.99 589.574 L 811.99 648.017 L 798.086 648.017 L 798.086 589.574 C 798.086 588.749 797.85 588.16 797.261 587.57 C 796.672 586.981 795.965 586.746 795.14 586.746 L 765.447 586.746 C 764.622 586.746 764.033 586.981 763.444 587.57 C 762.855 588.16 762.619 588.749 762.619 589.574 L 762.619 648.017 L 748.597 648.017 L 748.597 589.574 C 748.597 588.749 748.362 588.16 747.772 587.57 C 747.183 586.981 746.594 586.746 745.769 586.746 L 715.958 586.746 C 715.133 586.746 714.544 586.981 713.955 587.57 C 713.366 588.16 713.13 588.749 713.13 589.574 L 713.13 648.017 L 699.109 648.017 L 699.109 572.724 L 795.14 572.724 Z  M 885.28 572.724 C 889.993 572.724 893.882 574.374 897.181 577.673 C 900.48 580.972 902.13 584.978 902.13 589.574 L 902.13 617.381 L 839.562 617.381 L 839.562 631.168 C 839.562 631.992 839.798 632.582 840.387 633.171 C 840.976 633.76 841.565 633.995 842.39 633.995 L 902.13 633.995 L 902.13 648.017 L 842.39 648.017 C 837.677 648.017 833.788 646.368 830.489 643.068 C 827.19 639.769 825.54 635.763 825.54 631.168 L 825.54 589.574 C 825.54 584.86 827.19 580.972 830.489 577.673 C 833.788 574.374 837.795 572.724 842.39 572.724 L 885.28 572.724 L 885.28 572.724 Z  M 839.562 603.36 L 888.108 603.36 L 888.108 589.574 C 888.108 588.749 887.872 588.16 887.283 587.57 C 886.694 586.981 886.105 586.746 885.28 586.746 L 842.39 586.746 C 841.565 586.746 840.976 586.981 840.387 587.57 C 839.798 588.16 839.562 588.749 839.562 589.574 L 839.562 603.36 L 839.562 603.36 Z " fill="rgb(73,67,104)"/><path d=" M 902.012 299.24 L 725.267 137.106 L 700.405 164.207 L 847.692 299.24 L 267.144 299.24 L 414.431 164.089 L 389.569 136.989 L 212.824 299.24 L 212.706 299.24 L 212.706 406.112 C 212.706 454.423 259.249 493.778 316.397 493.778 L 425.39 493.778 C 482.537 493.778 529.08 454.423 529.08 406.112 L 529.08 335.886 L 585.638 335.886 L 585.638 406.112 C 585.638 454.423 632.181 493.778 689.329 493.778 L 798.321 493.778 C 855.469 493.778 902.012 454.423 902.012 406.112 L 902.012 299.24 Z " fill="rgb(77,167,240)"/></g></svg>